<?xml version="1.0" encoding="utf-8"?>
<!-- Generator: Adobe Illustrator 16.0.0, SVG Export Plug-In . SVG Version: 6.00 Build 0)  -->
<!DOCTYPE svg PUBLIC "-//W3C//DTD SVG 1.1//EN" "http://www.w3.org/Graphics/SVG/1.1/DTD/svg11.dtd">
<svg version="1.1" id="Layer_1" xmlns="http://www.w3.org/2000/svg" xmlns:xlink="http://www.w3.org/1999/xlink" x="0px" y="0px"
	 width="29.026px" height="29.027px" viewBox="0 0 29.026 29.027" enable-background="new 0 0 29.026 29.027" xml:space="preserve">
<path fill="#FFFFFF" d="M14.514,0C6.498,0,0,6.498,0,14.513c0,8.017,6.498,14.515,14.514,14.515c8.015,0,14.513-6.498,14.513-14.515
	C29.026,6.498,22.528,0,14.514,0 M20.48,19.385c0.303,0.303,0.303,0.793,0,1.096c-0.151,0.151-0.35,0.227-0.548,0.227
	s-0.396-0.075-0.548-0.227l-4.871-4.872L9.642,20.48c-0.151,0.151-0.35,0.227-0.548,0.227s-0.396-0.075-0.549-0.227
	c-0.302-0.303-0.302-0.793,0-1.096l4.873-4.871L8.545,9.642c-0.302-0.302-0.302-0.793,0-1.095c0.304-0.303,0.793-0.303,1.097,0
	l4.872,4.871l4.871-4.871c0.303-0.303,0.793-0.303,1.096,0c0.303,0.302,0.303,0.793,0,1.095l-4.872,4.872L20.48,19.385z"/>
</svg>
