<?xml version="1.0" encoding="utf-8"?>
<!-- Generator: Adobe Illustrator 16.0.0, SVG Export Plug-In . SVG Version: 6.00 Build 0)  -->
<!DOCTYPE svg PUBLIC "-//W3C//DTD SVG 1.1//EN" "http://www.w3.org/Graphics/SVG/1.1/DTD/svg11.dtd">
<svg version="1.1" id="Layer_1" xmlns="http://www.w3.org/2000/svg" xmlns:xlink="http://www.w3.org/1999/xlink" x="0px" y="0px"
	 width="32.898px" height="49.348px" viewBox="0 0 32.898 49.348" enable-background="new 0 0 32.898 49.348" xml:space="preserve">
<g>
	<path fill="#1D2235" d="M16.5,0C7.401,0,0,7.376,0,16.441v16.467c0,9.064,7.402,16.439,16.5,16.439c9.099,0,16.5-7.375,16.5-16.439
		V16.441C33,7.376,25.598,0,16.5,0 M31.166,32.907c0,8.058-6.579,14.611-14.666,14.611c-8.086,0-14.667-6.554-14.667-14.611V16.441
		c0-8.058,6.581-14.612,14.667-14.612c8.087,0,14.666,6.556,14.666,14.612V32.907z"/>
	<path fill="#1D2235" d="M22.193,28.88c-0.501-0.499-1.312-0.499-1.813,0l-3.894,3.882l-3.894-3.882
		c-0.501-0.499-1.313-0.499-1.813,0s-0.501,1.308,0,1.807l4.783,4.769c0.255,0.255,0.59,0.376,0.924,0.371
		c0.334,0.005,0.669-0.116,0.924-0.371l4.782-4.769C22.695,30.187,22.694,29.379,22.193,28.88"/>
	<path fill="#1D2235" d="M16.5,11.832c-0.505,0-0.917,0.409-0.917,0.914v2.418c0,0.506,0.412,0.914,0.917,0.914
		c0.507,0,0.917-0.408,0.917-0.914v-2.418C17.417,12.241,17.007,11.832,16.5,11.832"/>
	<path fill="#1D2235" d="M16.5,5.457c-0.505,0-0.917,0.409-0.917,0.914v2.418c0,0.506,0.412,0.914,0.917,0.914
		c0.507,0,0.917-0.408,0.917-0.914V6.371C17.417,5.866,17.007,5.457,16.5,5.457"/>
	<path fill="#1D2235" d="M16.5,18.046c-0.505,0-0.917,0.409-0.917,0.914v2.418c0,0.505,0.412,0.914,0.917,0.914
		c0.507,0,0.917-0.409,0.917-0.914V18.96C17.417,18.455,17.007,18.046,16.5,18.046"/>
	<path fill="#1D2235" d="M16.5,24.26c-0.505,0-0.917,0.408-0.917,0.914v2.418c0,0.505,0.412,0.914,0.917,0.914
		c0.507,0,0.917-0.409,0.917-0.914v-2.418C17.417,24.668,17.007,24.26,16.5,24.26"/>
</g>
</svg>
