<?xml version="1.0" encoding="utf-8"?>
<!-- Generator: Adobe Illustrator 16.0.0, SVG Export Plug-In . SVG Version: 6.00 Build 0)  -->
<!DOCTYPE svg PUBLIC "-//W3C//DTD SVG 1.1//EN" "http://www.w3.org/Graphics/SVG/1.1/DTD/svg11.dtd">
<svg version="1.1" id="Layer_1" xmlns="http://www.w3.org/2000/svg" xmlns:xlink="http://www.w3.org/1999/xlink" x="0px" y="0px"
	 width="37.035px" height="37.035px" viewBox="0 0 37.035 37.035" enable-background="new 0 0 37.035 37.035" xml:space="preserve">
<path fill="#B18E64" d="M18.517,0C8.29,0,0,8.291,0,18.517c0,10.227,8.29,18.518,18.517,18.518c10.227,0,18.518-8.291,18.518-18.518
	C37.035,8.291,28.744,0,18.517,0z M25.603,15.833c-0.283,0.283-0.755,0.283-1.047,0l-5.301-5.31v17.523
	c0,0.408-0.335,0.731-0.744,0.731c-0.408,0-0.733-0.323-0.733-0.731V10.523l-5.311,5.31c-0.282,0.283-0.753,0.283-1.036,0
	c-0.293-0.293-0.293-0.764,0-1.047l6.568-6.567c0.281-0.293,0.753-0.293,1.036,0l6.567,6.567
	C25.896,15.068,25.896,15.54,25.603,15.833z"/>
</svg>
