<?xml version="1.0" encoding="utf-8"?>
<!-- Generator: Adobe Illustrator 16.0.0, SVG Export Plug-In . SVG Version: 6.00 Build 0)  -->
<!DOCTYPE svg PUBLIC "-//W3C//DTD SVG 1.1//EN" "http://www.w3.org/Graphics/SVG/1.1/DTD/svg11.dtd">
<svg version="1.1" id="Layer_1" xmlns="http://www.w3.org/2000/svg" xmlns:xlink="http://www.w3.org/1999/xlink" x="0px" y="0px"
	 width="32.898px" height="49.348px" viewBox="0 0 32.898 49.348" enable-background="new 0 0 32.898 49.348" xml:space="preserve">
<path fill="#FFFFFF" d="M16.449,0C7.378,0,0,7.376,0,16.441v16.466c0,9.065,7.379,16.44,16.449,16.44s16.449-7.375,16.449-16.44
	V16.441C32.898,7.376,25.519,0,16.449,0 M31.07,32.907c0,8.058-6.559,14.612-14.621,14.612S1.827,40.965,1.827,32.907V16.441
	c0-8.058,6.56-14.613,14.622-14.613S31.07,8.384,31.07,16.441V32.907z"/>
<path fill="#FFFFFF" d="M22.125,28.88c-0.499-0.499-1.308-0.499-1.807,0l-3.882,3.882l-3.882-3.882c-0.5-0.499-1.308-0.499-1.807,0
	s-0.5,1.308,0,1.807l4.768,4.768c0.254,0.255,0.588,0.376,0.921,0.371c0.333,0.005,0.667-0.116,0.921-0.371l4.768-4.768
	C22.625,30.187,22.624,29.379,22.125,28.88"/>
<path fill="#FFFFFF" d="M16.449,11.832c-0.504,0-0.914,0.409-0.914,0.914v2.418c0,0.506,0.41,0.914,0.914,0.914
	c0.505,0,0.914-0.408,0.914-0.914v-2.418C17.363,12.241,16.954,11.832,16.449,11.832"/>
<path fill="#FFFFFF" d="M16.449,5.457c-0.504,0-0.914,0.409-0.914,0.914v2.418c0,0.506,0.41,0.914,0.914,0.914
	c0.505,0,0.914-0.408,0.914-0.914V6.371C17.363,5.866,16.954,5.457,16.449,5.457"/>
<path fill="#FFFFFF" d="M16.449,18.046c-0.504,0-0.914,0.409-0.914,0.914v2.418c0,0.505,0.41,0.914,0.914,0.914
	c0.505,0,0.914-0.409,0.914-0.914V18.96C17.363,18.455,16.954,18.046,16.449,18.046"/>
<path fill="#FFFFFF" d="M16.449,24.26c-0.504,0-0.914,0.408-0.914,0.914v2.418c0,0.505,0.41,0.914,0.914,0.914
	c0.505,0,0.914-0.409,0.914-0.914v-2.418C17.363,24.668,16.954,24.26,16.449,24.26"/>
</svg>
