<?xml version="1.0" encoding="utf-8"?>
<!-- Generator: Adobe Illustrator 16.0.0, SVG Export Plug-In . SVG Version: 6.00 Build 0)  -->
<!DOCTYPE svg PUBLIC "-//W3C//DTD SVG 1.1//EN" "http://www.w3.org/Graphics/SVG/1.1/DTD/svg11.dtd">
<svg version="1.1" id="Layer_1" xmlns="http://www.w3.org/2000/svg" xmlns:xlink="http://www.w3.org/1999/xlink" x="0px" y="0px"
	 width="26.844px" height="26.844px" viewBox="0 0 26.844 26.844" enable-background="new 0 0 26.844 26.844" xml:space="preserve">
<path fill="#1D2433" d="M19.436,0H7.408C3.323,0,0,3.324,0,7.408v12.029c0,4.084,3.323,7.406,7.408,7.406h12.027
	c4.086,0,7.408-3.322,7.408-7.406V7.408C26.844,3.324,23.521,0,19.436,0 M24.462,7.408v12.029c0,0.57-0.116,1.109-0.292,1.623
	l-6.031-7.559L24.205,5.9C24.357,6.379,24.462,6.879,24.462,7.408 M7.408,2.381h12.027c1.504,0,2.842,0.68,3.764,1.73l-9.723,12.182
	L3.658,4.096C4.579,3.053,5.911,2.381,7.408,2.381 M2.382,19.438V7.408c0-0.537,0.107-1.047,0.265-1.533l6.1,7.578l-6.072,7.607
	C2.498,20.547,2.382,20.008,2.382,19.438 M19.436,24.463H7.408c-1.469,0-2.779-0.645-3.698-1.65l6.259-7.842l2.905,3.609
	c0.336,0.418,0.879,0.416,1.214-0.004l2.833-3.549l6.214,7.785C22.214,23.818,20.904,24.463,19.436,24.463"/>
</svg>
