<?xml version="1.0" encoding="utf-8"?>
<!-- Generator: Adobe Illustrator 16.0.0, SVG Export Plug-In . SVG Version: 6.00 Build 0)  -->
<!DOCTYPE svg PUBLIC "-//W3C//DTD SVG 1.1//EN" "http://www.w3.org/Graphics/SVG/1.1/DTD/svg11.dtd">
<svg version="1.1" id="Layer_1" xmlns="http://www.w3.org/2000/svg" xmlns:xlink="http://www.w3.org/1999/xlink" x="0px" y="0px"
	 width="26.844px" height="26.843px" viewBox="0 0 26.844 26.843" enable-background="new 0 0 26.844 26.843" xml:space="preserve">
<path fill="#1D2433" d="M19.436,0H7.408C3.323,0,0,3.322,0,7.408v12.027c0,4.086,3.323,7.408,7.408,7.408h12.027
	c4.086,0,7.408-3.322,7.408-7.408V7.408C26.844,3.322,23.521,0,19.436,0 M8.33,10.402c-0.619,0.869-0.211,2.92,0.227,4.103v9.234
	H8.555c0.001,0.008,0.002,0.014,0.002,0.021c0,0.529-0.43,0.961-0.961,0.961H7.439c-0.531,0-0.961-0.432-0.961-0.961
	c0-0.008,0.001-0.014,0.002-0.021H6.478v-9.234c0.438-1.183,0.846-3.234,0.226-4.103c-1.13-0.341-2.427-1.88-2.426-4.035
	c0-2.14,1.157-4.106,3.212-4.141V2.226h0.054v0.001c2.055,0.034,3.213,2.001,3.213,4.141C10.756,8.522,9.461,10.062,8.33,10.402
	 M16.613,8.13c-0.043,0.633-0.328,1.197-0.76,1.605c-0.002,0.004-0.006,0.009-0.008,0.012c-1.77,1.806-0.712,4.235-0.71,4.819
	c0,0.645-0.002,9.09-0.002,9.09h-0.001c0,0.006,0.003,0.012,0.003,0.02c0,0.521-0.425,0.949-0.95,0.949
	c-0.523-0.002-0.948-0.426-0.949-0.949c0.001-0.008,0.003-0.014,0.003-0.021h-0.001c0,0,0-8.551-0.002-9.105
	c0-0.503,1.253-2.616-0.582-4.688c-0.557-0.445-0.913-1.133-0.913-1.9c0-0.071,0.015-0.259,0.015-0.259l0.62-4.98h0.509
	l-0.188,5.888h0.658l0.001-5.886l0.541-0.001v5.887h0.557V2.723l0.489-0.002v5.851l0.672,0.001L15.45,2.722l0.559,0.001l0.604,5.25
	C16.613,7.973,16.616,8.085,16.613,8.13 M20.564,23.691c0.002,0.514-0.418,0.934-0.932,0.932c-0.514,0.004-0.933-0.416-0.931-0.932
	c0-0.008,0.002-0.012,0.004-0.02L18.7,23.673c0,0-0.042-5.623-0.042-6.17c0.148-0.275,0.98-2.432-0.994-2.975
	c-0.001-10.754,2.57-12.205,2.57-12.205l0.313,0.002c0,0,0.019,13.804,0.017,14.38c0.002,0.631,0.002,6.965,0.002,6.965
	l-0.002,0.004C20.566,23.679,20.566,23.685,20.564,23.691"/>
</svg>
