<?xml version="1.0" encoding="utf-8"?>
<!-- Generator: Adobe Illustrator 16.0.0, SVG Export Plug-In . SVG Version: 6.00 Build 0)  -->
<!DOCTYPE svg PUBLIC "-//W3C//DTD SVG 1.1//EN" "http://www.w3.org/Graphics/SVG/1.1/DTD/svg11.dtd">
<svg version="1.1" id="Layer_1" xmlns="http://www.w3.org/2000/svg" xmlns:xlink="http://www.w3.org/1999/xlink" x="0px" y="0px"
	 width="26.844px" height="26.843px" viewBox="0 0 26.844 26.843" enable-background="new 0 0 26.844 26.843" xml:space="preserve">
<path fill="#1D2433" d="M13.422,7.566c-1.49,0-2.662,1.171-2.662,2.662c0,1.489,1.172,2.661,2.662,2.661
	c1.491,0,2.662-1.172,2.662-2.661C16.084,8.737,14.913,7.566,13.422,7.566"/>
<path fill="#1D2433" d="M19.437,0H7.408C3.323,0,0,3.323,0,7.407v12.028c0,4.085,3.323,7.407,7.408,7.407h12.028
	c4.085,0,7.407-3.322,7.407-7.407V7.407C26.844,3.323,23.521,0,19.437,0 M13.422,24.068c0,0-7.451-8.305-7.451-13.84
	c0-4.153,3.3-7.453,7.451-7.453c4.152,0,7.453,3.3,7.453,7.453C20.875,15.764,13.422,24.068,13.422,24.068"/>
</svg>
