<?xml version="1.0" encoding="utf-8"?>
<!-- Generator: Adobe Illustrator 16.0.0, SVG Export Plug-In . SVG Version: 6.00 Build 0)  -->
<!DOCTYPE svg PUBLIC "-//W3C//DTD SVG 1.1//EN" "http://www.w3.org/Graphics/SVG/1.1/DTD/svg11.dtd">
<svg version="1.1" id="Layer_1" xmlns="http://www.w3.org/2000/svg" xmlns:xlink="http://www.w3.org/1999/xlink" x="0px" y="0px"
	 width="26.844px" height="26.844px" viewBox="0 0 26.844 26.844" enable-background="new 0 0 26.844 26.844" xml:space="preserve">
<path fill="#1D2433" d="M8.69,18.305v0.636c0,0.325-0.264,0.591-0.59,0.591c-0.326,0-0.59-0.266-0.59-0.591v-0.61
	c-0.932,0.123-1.606,0.481-1.606,0.906c0,0.525,1.035,0.95,2.311,0.95s2.311-0.425,2.311-0.95
	C10.526,18.778,9.738,18.396,8.69,18.305"/>
<path fill="#1D2433" d="M19.436,0H7.408C3.323,0,0,3.323,0,7.408v12.027c0,4.086,3.323,7.408,7.408,7.408h12.027
	c4.086,0,7.408-3.322,7.408-7.408V7.408C26.844,3.323,23.521,0,19.436,0 M12.994,23.383c-0.624,0-10.717,0-10.717-3.506
	c0-1.814,2.663-2.701,5.233-3.137V3.207c0-0.325,0.265-0.59,0.59-0.59c0.326,0,0.59,0.265,0.59,0.59v1.166
	c0.935,0.632,2.683,1.488,5.146,1.315c2.896-0.204-2.939,3.175-5.146,4.264v6.616c1.925-0.238,3.536-0.248,3.536-0.248
	s7.667-0.11,8.226,0.818c0.636,1.117-1.741,0.924-1.737,1.502c-0.004,1.56,5.852,0.66,5.852,2.484
	C24.566,22.951,13.619,23.383,12.994,23.383"/>
</svg>
