<?xml version="1.0" encoding="utf-8"?>
<!-- Generator: Adobe Illustrator 16.0.0, SVG Export Plug-In . SVG Version: 6.00 Build 0)  -->
<!DOCTYPE svg PUBLIC "-//W3C//DTD SVG 1.1//EN" "http://www.w3.org/Graphics/SVG/1.1/DTD/svg11.dtd">
<svg version="1.1" id="Layer_1" xmlns="http://www.w3.org/2000/svg" xmlns:xlink="http://www.w3.org/1999/xlink" x="0px" y="0px"
	 width="26.844px" height="26.844px" viewBox="0 0 26.844 26.844" enable-background="new 0 0 26.844 26.844" xml:space="preserve">
<path fill="#FFFFFF" d="M19.436,0H7.407C3.323,0,0,3.322,0,7.406v12.029c0,4.084,3.323,7.408,7.407,7.408h12.028
	c4.085,0,7.408-3.324,7.408-7.408V7.406C26.844,3.322,23.521,0,19.436,0 M24.463,19.436c0,2.771-2.256,5.025-5.026,5.025H7.407
	c-2.771,0-5.026-2.254-5.026-5.025V7.406c0-2.77,2.256-5.025,5.026-5.025h12.028c2.771,0,5.027,2.256,5.027,5.025V19.436z"/>
<path fill="#FFFFFF" d="M13.422,6.504c-3.814,0-6.917,3.104-6.917,6.918c0,3.813,3.103,6.916,6.917,6.916s6.917-3.104,6.917-6.916
	C20.339,9.607,17.236,6.504,13.422,6.504 M13.422,17.957c-2.501,0-4.535-2.035-4.535-4.535c0-2.502,2.034-4.535,4.535-4.535
	s4.535,2.033,4.535,4.535C17.957,15.922,15.923,17.957,13.422,17.957"/>
<path fill="#FFFFFF" d="M20.629,4.484c-0.459,0-0.91,0.188-1.234,0.512s-0.513,0.775-0.513,1.236c0,0.459,0.188,0.908,0.513,1.234
	c0.324,0.324,0.775,0.512,1.234,0.512c0.46,0,0.91-0.188,1.235-0.512c0.325-0.326,0.512-0.775,0.512-1.234
	c0-0.461-0.187-0.912-0.512-1.236C21.54,4.672,21.089,4.484,20.629,4.484"/>
</svg>
