<svg xmlns="http://www.w3.org/2000/svg" width="152" height="48.87" viewBox="0 0 152 48.87">
    <defs>
        <clipPath id="8gwapr9iea">
            <path data-name="사각형 2439" style="fill:none" d="M0 0h152v48.87H0z"/>
        </clipPath>
    </defs>
    <g data-name="그룹 2390">
        <g data-name="그룹 2389" style="clip-path:url(#8gwapr9iea)">
            <path data-name="패스 7253" d="M28.168 63.58c-3.957.68-7.235.68-9.32-.227a12.731 12.731 0 0 1-6.348-5.374 49.065 49.065 0 0 1-7.03-1.022 23.674 23.674 0 0 0 13.7 11.087 34.57 34.57 0 0 1 10.8-4.777c-.674.109-1.278.223-1.8.312" transform="translate(-2.415 -25.145)" style="fill:#6ba517"/>
            <path data-name="패스 7254" d="M48.626 78.676a15.514 15.514 0 0 1 9.714-5.553l-.027-.056C52.138 66.655 45.076 67.23 40.8 67.93A34.57 34.57 0 0 0 30 72.707a28.451 28.451 0 0 0 4.348 1.015c6.47.991 10.259 1.983 14.282 4.955" transform="translate(-13.243 -29.808)" style="fill:#43861a"/>
            <path data-name="패스 7255" d="M34.107 54.808c-.819.147-1.637.26-2.446.345a8.5 8.5 0 0 0 5.139 1.526c4.708 0 10.338-1.822 13.634-5.873-3.682-.4-9.036 2.693-16.33 4" transform="translate(-13.977 -22.414)" style="fill:#6ba517"/>
            <path data-name="패스 7256" d="M39.781 40.439c-.655 2.455-2.7 4.041-6.147 4.041a5.792 5.792 0 0 1-4.092-2.027s.235-.641.945-.184c.476.3 5.337 1.926 5.783-2.754-2.355-.636-4.817-1.308-7.286-1.854a23.384 23.384 0 0 0-2.154-.373 8.784 8.784 0 0 0-1.194 4.747A8.915 8.915 0 0 0 29 49.2a34.49 34.49 0 0 0 2.446-.346c7.294-1.309 12.647-4.406 16.33-4a12.177 12.177 0 0 0 2.024-3.57c-2.381.8-5.931.179-10.019-.846" transform="translate(-11.318 -16.462)" style="fill:#f17f00"/>
            <path data-name="패스 7257" d="M8.667 43.286a12.108 12.108 0 0 1 1.785-6.3 39.424 39.424 0 0 0-10.1 1.921A24.052 24.052 0 0 0 3.131 48c.026.047.055.092.081.139a49.054 49.054 0 0 0 7.026 1.022 11.541 11.541 0 0 1-1.571-5.876" transform="translate(-.157 -16.328)" style="fill:#f17f00"/>
            <path data-name="패스 7258" d="M49.36 31.218c-.7-.163-1.511-.306-2.4-.424a5.768 5.768 0 0 1 2.468 4.9 7.273 7.273 0 0 1-.232 1.875c4.088 1.024 7.638 1.643 10.019.846q.163-.455.293-.934a32.466 32.466 0 0 0 .354-6.193 24.249 24.249 0 0 1-10.5-.073" transform="translate(-20.731 -13.595)" style="fill:#008ddb"/>
            <path data-name="패스 7259" d="M32.437 32.263a5.8 5.8 0 0 0-4.663 2.807c.718.09 1.438.213 2.154.372 2.469.546 4.931 1.219 7.286 1.854.021-.225.032-.464.032-.719 0-2.943-2.576-4.314-4.81-4.314" transform="translate(-12.261 -14.243)" style="fill:#008ddb"/>
            <path data-name="패스 7260" d="M13.643 30.7A40.629 40.629 0 0 0 .087 34.319c.031.584.081 1.19.15 1.812a39.45 39.45 0 0 1 10.1-1.921 11.563 11.563 0 0 1 3.31-3.511" transform="translate(-.038 -13.553)" style="fill:#008ddb"/>
            <path data-name="패스 7261" d="M41.962 23.212c.89.118 1.7.261 2.4.424a24.249 24.249 0 0 0 10.5.073 28.01 28.01 0 0 0-.387-3.917c-.9-.283-3.626-1.907-5.792-2.9a31.932 31.932 0 0 0-13.04-3.276v7.693a11.779 11.779 0 0 1 6.321 1.9" transform="translate(-15.734 -6.013)" style="fill:#00337d"/>
            <path data-name="패스 7262" d="M19.18 21.318v-7.7A32.026 32.026 0 0 0 6.2 16.9c-2.166.988-4.9 2.613-5.792 2.9a31.583 31.583 0 0 0-.36 6.987A40.622 40.622 0 0 1 13.6 23.161a10.425 10.425 0 0 1 5.575-1.843" transform="translate(0 -6.014)" style="fill:#00337d"/>
            <path data-name="패스 7263" d="M51.131 2.614a9.94 9.94 0 0 1-6.118 2.545c-3.292.28-5.89-.861-9.373 1.152V.169c6.392-1.267 9.079 5.037 15.516 2.4z" transform="translate(-15.734)" style="fill:#f17f00"/>
            <path data-name="패스 7264" d="M97.255 24.907a5.19 5.19 0 0 0-1.638 3.993v11.416a7.205 7.205 0 0 0 1.907 4.873 7.744 7.744 0 0 0 5.705 1.988h7.07-.008a1.248 1.248 0 0 0 1.323-1.205c0-1.125-.808-1.256-1.427-1.256H103.9a4.033 4.033 0 0 1-2.86-.9 4.314 4.314 0 0 1-1.351-3.42v-4.323h8.237c.058 0 1.469-.063 1.469-1.254s-1.414-1.3-1.475-1.3h-8.232v-4.225a3.935 3.935 0 0 1 1.154-2.67 4.956 4.956 0 0 1 3.573-1.205l4.812.105a2.43 2.43 0 0 0 1.6-.338 1.083 1.083 0 0 0 .371-.871 1.194 1.194 0 0 0-.379-.916 2.588 2.588 0 0 0-1.593-.5h-5.639c-.043 0-4.029-.118-6.334 2" transform="translate(-42.211 -10.11)" style="fill:#fff"/>
            <path data-name="패스 7265" d="M130.112 37.667a7.937 7.937 0 0 0-3.486 5.725c-.113 3.734.967 6.448 3.208 8.07a10.1 10.1 0 0 0 7.991 1.276 3.064 3.064 0 0 0 1.952-1.251.9.9 0 0 0 .062-.716.989.989 0 0 0-.619-.569 1.652 1.652 0 0 0-1.122.208 5.261 5.261 0 0 1-4.158.522c-4.578-1.843-4.039-7.188-3.393-8.849a5.908 5.908 0 0 1 3.118-3.507 6.646 6.646 0 0 1 4.522-.089c.254.121 1.243.446 1.606-.116a.824.824 0 0 0 .13-.733c-.169-.5-.86-.782-.866-.784-4.42-1.341-7.305-.3-8.945.815" transform="translate(-55.898 -15.99)" style="fill:#fff"/>
            <path data-name="패스 7266" d="M153.337 44.406c0 4.689 3.438 8.5 7.662 8.5s7.663-3.815 7.663-8.5S165.225 35.9 161 35.9s-7.662 3.816-7.662 8.505m3.711 0c0-3.606 1.772-6.538 3.951-6.538s3.953 2.932 3.953 6.538-1.773 6.539-3.953 6.539-3.951-2.933-3.951-6.539" transform="translate(-67.693 -15.849)" style="fill:#fff"/>
            <path data-name="패스 7267" d="M186.977 23.221a3.332 3.332 0 0 0-.68 2.259l-.053 12.05c0 3.684.064 5.846 1.376 7.4a5.789 5.789 0 0 0 5.4 2.092c.72-.131 1.106-.389 1.171-.586a.7.7 0 0 0-.042-.62 1.066 1.066 0 0 0-.666-.366 3.739 3.739 0 0 1-3.27-3.83V25.535a3.322 3.322 0 0 0-.571-2.321 1.711 1.711 0 0 0-1.309-.512 1.818 1.818 0 0 0-1.355.519" transform="translate(-82.221 -10.022)" style="fill:#fff"/>
            <path data-name="패스 7268" d="M204.507 24.722a2.193 2.193 0 1 0 2.193-2.092 2.146 2.146 0 0 0-2.192 2.092" transform="translate(-90.283 -9.991)" style="fill:#fff"/>
            <path data-name="패스 7269" d="M204.653 37.869V50.99a2.029 2.029 0 0 0 4.053 0V37.869a2.029 2.029 0 0 0-4.053 0" transform="translate(-90.348 -15.863)" style="fill:#fff"/>
            <path data-name="패스 7270" d="M222.38 35.869c-1.518.085-3.918.628-4.5 1.566a.827.827 0 0 0-.136.45.93.93 0 0 0 .132.394c.073.125.539.478 1.623-.088a6.878 6.878 0 0 1 5.279.141 2.925 2.925 0 0 1 1.5 2.737V46.2c0 .049.359 4.861-3.5 4.861A2.661 2.661 0 0 1 220.673 50a3.77 3.77 0 0 1-.489-3.622c.933-2.78 4.028-3.014 4.2-3.062a.685.685 0 0 0 .6-.845.564.564 0 0 0-.329-.343c-.682-.342-2.337-.349-4.361.447a5.6 5.6 0 0 0-3.458 4.209 5.007 5.007 0 0 0 1.882 4.69 6.491 6.491 0 0 0 6.952.809c2.584-1.08 4.32-3.286 4.321-5.488V42.55a7.236 7.236 0 0 0-2.021-5.039 7.278 7.278 0 0 0-5.586-1.642" transform="translate(-95.702 -15.827)" style="fill:#fff"/>
            <path data-name="패스 7271" d="M246.185 42.483v8.408a1.985 1.985 0 1 0 3.969 0v-9.445a4.179 4.179 0 0 1 1.012-2.856 3.437 3.437 0 0 1 5.117.75 3.936 3.936 0 0 1 .433 1.7v9.849a1.984 1.984 0 1 0 3.967 0v-8.556c0-.06-.433-6.434-6.887-6.434a7.118 7.118 0 0 0-7.611 6.584" transform="translate(-108.683 -15.848)" style="fill:#fff"/>
            <path data-name="패스 7272" d="M157.3 76.627q-2.166.008-2.188 2.815a3.044 3.044 0 0 0 .586 1.978 1.853 1.853 0 0 0 1.532.727q2.157-.007 2.189-2.813-.05-2.657-2.119-2.707m.933 4.464a1.218 1.218 0 0 1-1 .506 1.111 1.111 0 0 1-1.045-.669 3.237 3.237 0 0 1-.306-1.486 2.911 2.911 0 0 1 .423-1.767 1.208 1.208 0 0 1 1-.5 1.116 1.116 0 0 1 1.053.662 3.447 3.447 0 0 1 .3 1.494 2.912 2.912 0 0 1-.421 1.758m3.764-4.41h-.724v5.413h2.64V81.5h-1.915zm-10.43 3.021h.98v1.7a1.23 1.23 0 0 1-.343.1 1.673 1.673 0 0 1-.388.049 1.648 1.648 0 0 1-1.413-.642 2.77 2.77 0 0 1-.457-1.676 2 2 0 0 1 .559-1.509 1.744 1.744 0 0 1 1.259-.51 3.279 3.279 0 0 1 1.361.333v-.683a3.466 3.466 0 0 0-1.367-.242 2.454 2.454 0 0 0-1.853.738 2.8 2.8 0 0 0-.726 2.014 2.993 2.993 0 0 0 .628 1.931 2.4 2.4 0 0 0 1.99.837 3.792 3.792 0 0 0 .795-.1l.358-.1q.168-.046.294-.084v-2.75h-1.678zm33.227.5a1.646 1.646 0 0 1-.283 1.013 1.053 1.053 0 0 1-1.62 0 1.6 1.6 0 0 1-.295-1.013v-3.519h-.724V80.1a2.492 2.492 0 0 0 .232 1.208 1.5 1.5 0 0 0 .58.584 1.9 1.9 0 0 0 1.009.253 1.992 1.992 0 0 0 1.033-.252 1.446 1.446 0 0 0 .556-.58 2.51 2.51 0 0 0 .236-1.211v-3.421h-.722zm-19.379 1.889h.726v-2.501h1.781V79h-1.781v-1.728h1.874v-.591h-2.6zm13.028-5.413h-.725v5.413h2.638V81.5h-1.913zm-5.523.684a2.8 2.8 0 0 0-.724 2.015 2.976 2.976 0 0 0 .627 1.93 2.4 2.4 0 0 0 1.989.837 3.929 3.929 0 0 0 1.06-.164V81.3a2.125 2.125 0 0 1-1.043.257 1.642 1.642 0 0 1-1.411-.643 2.772 2.772 0 0 1-.457-1.675 2 2 0 0 1 .559-1.51 1.747 1.747 0 0 1 1.259-.51 2.146 2.146 0 0 1 1.093.273v-.672a2.706 2.706 0 0 0-1.1-.193 2.457 2.457 0 0 0-1.853.738m17.61 2.316a1.185 1.185 0 0 0-.784-.409v-.018a1.2 1.2 0 0 0 .95-1.2 1.354 1.354 0 0 0-.374-.993 1.77 1.77 0 0 0-1.237-.379h-1.471v5.413h1.4a1.884 1.884 0 0 0 1.393-.466 1.411 1.411 0 0 0 .424-1.014 1.441 1.441 0 0 0-.3-.932m-2.191-2.449h.56a1.219 1.219 0 0 1 .83.251.818.818 0 0 1 .24.605c.006.615-.392.927-1.2.936h-.432zm1.5 4.014a1.172 1.172 0 0 1-.868.3h-.627v-1.973h.714a1.109 1.109 0 0 1 .8.282 1.032 1.032 0 0 1 .25.712.943.943 0 0 1-.27.677" transform="translate(-65.86 -33.826)" style="fill:#fff"/>
            <path data-name="패스 7273" d="M157.273 77.128a1.239 1.239 0 0 0-1.019.509 2.943 2.943 0 0 0-.428 1.783 3.272 3.272 0 0 0 .308 1.5 1.139 1.139 0 0 0 1.069.684 1.25 1.25 0 0 0 1.026-.516 2.945 2.945 0 0 0 .426-1.775 3.489 3.489 0 0 0-.3-1.5 1.146 1.146 0 0 0-1.076-.677m.913 3.924a1.184 1.184 0 0 1-.982.5 1.091 1.091 0 0 1-1.022-.654 3.227 3.227 0 0 1-.3-1.473 2.9 2.9 0 0 1 .418-1.75 1.185 1.185 0 0 1 .976-.488 1.082 1.082 0 0 1 1.029.646 3.434 3.434 0 0 1 .3 1.482 2.893 2.893 0 0 1-.415 1.742m-6.663-1.371v.027h1.006l-.027 1.671a2.106 2.106 0 0 0-.32.073l-.384.049a1.629 1.629 0 0 1-1.391-.632 2.756 2.756 0 0 1-.452-1.66 1.978 1.978 0 0 1 .551-1.489 1.729 1.729 0 0 1 1.241-.5 3.26 3.26 0 0 1 1.35.331l.038-.707a3.235 3.235 0 0 0-1.395-.269 2.493 2.493 0 0 0-1.872.746 2.834 2.834 0 0 0-.733 2.032 3.031 3.031 0 0 0 .634 1.948 2.44 2.44 0 0 0 2.011.847l.8-.1.359-.1.294-.085.019-2.775-1.7-.027zm.053-.59 1.651.027-.027 2.72a1.548 1.548 0 0 0-.274.061l-.357.1-.788.1a2.388 2.388 0 0 1-1.968-.826 2.98 2.98 0 0 1-.623-1.915 2.784 2.784 0 0 1 .718-2 2.442 2.442 0 0 1 1.834-.73 3.454 3.454 0 0 1 1.357.24l-.016.658a2.76 2.76 0 0 0-1.335-.361 1.78 1.78 0 0 0-1.278.518 2.033 2.033 0 0 0-.567 1.528 2.812 2.812 0 0 0 .462 1.692 1.681 1.681 0 0 0 1.435.654l.394-.05.349-.1.015-1.724-.98-.026zm38.957.551a1.21 1.21 0 0 0-.8-.418 1.163 1.163 0 0 0 .973-1.192 1.382 1.382 0 0 0-.382-1.012 1.8 1.8 0 0 0-1.256-.388H187.6l-.027 5.44L189 82.1a1.917 1.917 0 0 0 1.413-.475 1.443 1.443 0 0 0 .431-1.033 1.474 1.474 0 0 0-.308-.949m-.161 1.944a1.861 1.861 0 0 1-1.374.459h-1.4l.026-5.386 1.444.027a1.75 1.75 0 0 1 1.219.371 1.331 1.331 0 0 1 .366.973 1.175 1.175 0 0 1-.931 1.175v.071a1.165 1.165 0 0 1 .766.4 1.419 1.419 0 0 1 .3.915 1.389 1.389 0 0 1-.416.995m-33.1-5.008c-1.453.005-2.2.961-2.214 2.842a3.083 3.083 0 0 0 .591 2 1.886 1.886 0 0 0 1.553.737c1.447-.005 2.193-.96 2.216-2.84-.034-1.782-.755-2.7-2.145-2.734m-.07 5.52a1.834 1.834 0 0 1-1.511-.717 3.031 3.031 0 0 1-.58-1.96c.017-1.845.743-2.784 2.16-2.788 1.356.032 2.06.934 2.093 2.68-.023 1.844-.75 2.781-2.163 2.785M162 76.632h-.751l-.027 5.44 2.666.027.027-.618-1.941-.027zm1.888 4.875-.027.565-2.613-.027.027-5.386.671.026v4.8zm26.092-3.442a.848.848 0 0 0-.248-.624 1.252 1.252 0 0 0-.848-.259h-.584V79l.459.027c.819-.01 1.232-.335 1.225-.964m-1.657.91.027-1.739h.533a1.2 1.2 0 0 1 .811.244.794.794 0 0 1 .232.586c.006.6-.377.9-1.172.909zm-9.87-2.344h-.757l-.027 5.44 2.665.027.027-.618-1.939-.027zm1.886 4.875-.026.565-2.612-.027.027-5.386.672.026v4.8zm-5.577-4.284a2.132 2.132 0 0 1 1.08.269l.04-.694a2.813 2.813 0 0 0-3 .527 2.834 2.834 0 0 0-.731 2.033v.034a3.007 3.007 0 0 0 .633 1.914 2.433 2.433 0 0 0 2.01.847 3.982 3.982 0 0 0 1.068-.165l.019-.71a2.712 2.712 0 0 1-1.07.23 1.625 1.625 0 0 1-1.389-.632 2.75 2.75 0 0 1-.452-1.659 1.98 1.98 0 0 1 .55-1.49 1.728 1.728 0 0 1 1.241-.5m-1.845 1.993a2.81 2.81 0 0 0 .462 1.691 1.679 1.679 0 0 0 1.433.654 2.162 2.162 0 0 0 1.057-.261l-.04.661a4.873 4.873 0 0 1-1.033.137 2.38 2.38 0 0 1-1.968-.826 2.966 2.966 0 0 1-.621-1.914 2.782 2.782 0 0 1 .716-2 2.439 2.439 0 0 1 1.833-.729 2.7 2.7 0 0 1 1.089.19l-.016.647a1.919 1.919 0 0 0-2.344.218 2.027 2.027 0 0 0-.567 1.529m-7.545 2.856v.03h.752l.027-2.533 1.754.027.027-.617-1.807-.027.027-1.7 1.847.027.027-.618-2.626-.027zm.053-5.413 2.573.027-.027.564-1.847-.027-.027 1.753L167.9 79l-.027.562-1.754-.027-.027 2.533-.672-.026zm19.325 3.524a1.631 1.631 0 0 1-.277 1 1.027 1.027 0 0 1-1.577 0 1.578 1.578 0 0 1-.29-1v-3.522l-.751-.027-.027 3.448a2.529 2.529 0 0 0 .235 1.22 1.524 1.524 0 0 0 .591.595 1.935 1.935 0 0 0 1.022.257 2.027 2.027 0 0 0 1.047-.256 1.482 1.482 0 0 0 .566-.59 2.549 2.549 0 0 0 .239-1.225v-3.422l-.752-.027zm.054-3.524.7.027-.027 3.4a2.507 2.507 0 0 1-.234 1.2 1.431 1.431 0 0 1-.547.569 1.969 1.969 0 0 1-1.019.248 1.879 1.879 0 0 1-.994-.249 1.472 1.472 0 0 1-.571-.574 2.479 2.479 0 0 1-.229-1.195v-3.424l.7.027-.027 3.5a1.628 1.628 0 0 0 .3 1.029 1.081 1.081 0 0 0 1.663 0 1.678 1.678 0 0 0 .288-1.029zm4.233 2.867h-.714l-.027 2 .654.027a1.2 1.2 0 0 0 .888-.306.972.972 0 0 0 .278-.7 1.063 1.063 0 0 0-.256-.73 1.142 1.142 0 0 0-.822-.29m.761 1.68a1.15 1.15 0 0 1-.849.289h-.627l.027-1.941.687.027a1.089 1.089 0 0 1 .783.273 1.011 1.011 0 0 1 .242.693.923.923 0 0 1-.264.659" transform="translate(-65.839 -33.804)" style="fill:#fff"/>
        </g>
    </g>
</svg>
